<svg xmlns="http://www.w3.org/2000/svg" width="452" height="485" fill="none"><path fill="#1D4B00" d="M294.629 365.737c-36.25 0-53.984-25.291-57.585-30.517-10.7 10.527-26.852 30.517-55.947 30.517-33.598 0-61.92-25.384-61.92-66.541V161.953c0-41.25 28.369-66.54 61.92-66.54 33.552 0 61.921 26.861 61.921 65.914 6.55-2.328 13.5-3.534 20.646-3.534 34.566 0 61.92 28.329 61.92 62.38 0 9.546-1.805 18.036-5.75 26.17 21.921 9.817 36.715 31.91 36.715 57.013 0 34.398-27.783 62.381-61.92 62.381Zm-42.614-45.598c8.904 15.586 23.893 24.804 42.614 24.804 22.758 0 41.283-18.661 41.283-41.587 0-18.138-11.575-33.92-28.229-39.473l-55.668 56.265v-.009Zm-70.909-203.933c-20.544 0-41.283 14.146-41.283 45.747v137.243c0 31.602 20.73 45.747 41.283 45.747 16.311 0 25.327-8.293 39.87-22.943l6.438-6.489c-3.321-9.976-5.033-21.046-5.033-32.957v-120.61c0-31.601-20.731-45.747-41.284-45.747l.009.009Zm61.921 67.934v98.423c0 5.572.465 10.874 1.349 15.866l44.866-45.196c13.035-13.126 15.705-22.71 15.705-33.05 0-22.093-17.622-41.587-41.283-41.587-7.36 0-14.403 1.907-20.637 5.553v-.009Z"/></svg>